<svg width="8" height="14" viewBox="0 0 8 14" fill="none" xmlns="http://www.w3.org/2000/svg">
<path d="M1.03148 0.165954L7.8142 6.57785C7.93333 6.69047 8 6.84152 8 6.99879C8 7.15607 7.93333 7.30712 7.8142 7.41974L1.03148 13.834C0.975989 13.8866 0.909642 13.9283 0.836355 13.9568C0.763069 13.9853 0.684328 14 0.604781 14C0.525234 14 0.446493 13.9853 0.373206 13.9568C0.299919 13.9283 0.233572 13.8866 0.17808 13.834C0.0639143 13.7263 0 13.5818 0 13.4312C0 13.2806 0.0639143 13.136 0.17808 13.0283L6.55635 6.99879L0.17808 0.970456C0.0643058 0.862805 0.000638962 0.718474 0.000638962 0.568205C0.000638962 0.417937 0.0643058 0.273606 0.17808 0.165954C0.233572 0.113434 0.299919 0.0716909 0.373206 0.0431879C0.446493 0.0146849 0.525234 0 0.604781 0C0.684328 0 0.763069 0.0146849 0.836355 0.0431879C0.909642 0.0716909 0.975989 0.113434 1.03148 0.165954Z" fill="#FF4B21"/>
</svg>
