<svg width="8" height="14" viewBox="0 0 8 14" fill="none" xmlns="http://www.w3.org/2000/svg">
<path d="M6.96852 13.834L0.1858 7.42215C0.0666717 7.30953 0 7.15848 0 7.00121C0 6.84393 0.0666717 6.69288 0.1858 6.58026L6.96852 0.165954C7.02401 0.113433 7.09036 0.0716896 7.16364 0.0431871C7.23693 0.0146837 7.31567 0 7.39522 0C7.47477 0 7.55351 0.0146837 7.62679 0.0431871C7.70008 0.0716896 7.76643 0.113433 7.82192 0.165954C7.93609 0.27366 8 0.418247 8 0.568808C8 0.719368 7.93609 0.863955 7.82192 0.971662L1.44365 7.00121L7.82192 13.0295C7.93569 13.1372 7.99936 13.2815 7.99936 13.4318C7.99936 13.5821 7.93569 13.7264 7.82192 13.834C7.76643 13.8866 7.70008 13.9283 7.62679 13.9568C7.55351 13.9853 7.47477 14 7.39522 14C7.31567 14 7.23693 13.9853 7.16364 13.9568C7.09036 13.9283 7.02401 13.8866 6.96852 13.834Z" fill="#FF4B21"/>
</svg>
