<svg width="14" height="14" viewBox="0 0 14 14" fill="none" xmlns="http://www.w3.org/2000/svg">
<path d="M6.88209 9.96307C6.89609 9.98208 6.91399 9.99746 6.93442 10.008C6.95485 10.0186 6.97727 10.0241 7 10.0241C7.02273 10.0241 7.04515 10.0186 7.06558 10.008C7.08601 9.99746 7.10391 9.98208 7.11791 9.96307L9.21417 7.14517C9.29091 7.04176 9.22166 6.88864 9.09626 6.88864H7.70936V0.159091C7.70936 0.0715909 7.64198 0 7.55963 0H6.43663C6.35428 0 6.2869 0.0715909 6.2869 0.159091V6.88665H4.90374C4.77834 6.88665 4.70909 7.03977 4.78583 7.14318L6.88209 9.96307ZM13.8503 9.26705H12.7273C12.6449 9.26705 12.5775 9.33864 12.5775 9.42614V12.4886H1.42246V9.42614C1.42246 9.33864 1.35508 9.26705 1.27273 9.26705H0.149733C0.0673797 9.26705 0 9.33864 0 9.42614V13.3636C0 13.7156 0.267647 14 0.59893 14H13.4011C13.7324 14 14 13.7156 14 13.3636V9.42614C14 9.33864 13.9326 9.26705 13.8503 9.26705Z" fill="#FF4B21"/>
</svg>
