<svg width="19" height="19" viewBox="0 0 19 19" fill="none" xmlns="http://www.w3.org/2000/svg">
<g clip-path="url(#clip0_68_816)">
<path d="M18.6571 5.4905C18.6134 4.49822 18.4529 3.81604 18.223 3.22493C17.9859 2.59747 17.6211 2.03571 17.1431 1.56871C16.6761 1.09445 16.1107 0.725929 15.4905 0.492503C14.8959 0.26264 14.2173 0.102177 13.225 0.0584277C12.2254 0.010973 11.908 0 9.37252 0C6.83704 0 6.51968 0.010973 5.5237 0.0547226C4.53143 0.0984721 3.84925 0.259077 3.25827 0.488798C2.63067 0.725929 2.06891 1.09075 1.60192 1.56871C1.12765 2.03571 0.759275 2.60117 0.525706 3.22136C0.295843 3.81604 0.13538 4.49452 0.0916308 5.48679C0.0441761 6.48648 0.0332031 6.80384 0.0332031 9.33932C0.0332031 11.8748 0.0441761 12.1922 0.0879257 13.1881C0.131675 14.1804 0.29228 14.8626 0.522143 15.4537C0.759275 16.0812 1.12765 16.6429 1.60192 17.1099C2.06891 17.5842 2.63438 17.9527 3.25457 18.1861C3.84925 18.416 4.52772 18.5765 5.52014 18.6202C6.51597 18.6641 6.83348 18.6749 9.36896 18.6749C11.9044 18.6749 12.2218 18.6641 13.2178 18.6202C14.2101 18.5765 14.8922 18.416 15.4832 18.1861C16.7383 17.7009 17.7305 16.7086 18.2158 15.4537C18.4455 14.859 18.6061 14.1804 18.6498 13.1881C18.6936 12.1922 18.7046 11.8748 18.7046 9.33932C18.7046 6.80384 18.7009 6.48648 18.6571 5.4905ZM16.9754 13.1152C16.9352 14.0272 16.782 14.5197 16.6543 14.8481C16.3405 15.6616 15.6948 16.3073 14.8813 16.6211C14.5529 16.7488 14.0569 16.902 13.1484 16.942C12.1634 16.9859 11.868 16.9968 9.37623 16.9968C6.8845 16.9968 6.58537 16.9859 5.60393 16.942C4.69189 16.902 4.19939 16.7488 3.87105 16.6211C3.46619 16.4715 3.09767 16.2344 2.79855 15.9243C2.48845 15.6214 2.25132 15.2566 2.10169 14.8518C1.974 14.5234 1.82081 14.0272 1.78076 13.1189C1.73687 12.1339 1.72604 11.8383 1.72604 9.34659C1.72604 6.85486 1.73687 6.55573 1.78076 5.57443C1.82081 4.66239 1.974 4.16989 2.10169 3.84155C2.25132 3.43655 2.48845 3.06817 2.80225 2.7689C3.10493 2.45881 3.46975 2.22168 3.87476 2.07219C4.20309 1.9445 4.6993 1.79131 5.60764 1.75112C6.59264 1.70737 6.8882 1.6964 9.37979 1.6964C11.8752 1.6964 12.1706 1.70737 13.1521 1.75112C14.0641 1.79131 14.5566 1.9445 14.885 2.07219C15.2898 2.22168 15.6583 2.45881 15.9575 2.7689C16.2676 3.07173 16.5047 3.43655 16.6543 3.84155C16.782 4.16989 16.9352 4.66595 16.9754 5.57443C17.0191 6.55944 17.0301 6.85486 17.0301 9.34659C17.0301 11.8383 17.0191 12.1302 16.9754 13.1152Z" fill="white"/>
<path d="M9.37156 4.54199C6.72308 4.54199 4.57422 6.69071 4.57422 9.33934C4.57422 11.988 6.72308 14.1367 9.37156 14.1367C12.0202 14.1367 14.1689 11.988 14.1689 9.33934C14.1689 6.69071 12.0202 4.54199 9.37156 4.54199ZM9.37156 12.4513C7.65336 12.4513 6.25964 11.0577 6.25964 9.33934C6.25964 7.62099 7.65336 6.22742 9.37156 6.22742C11.0899 6.22742 12.4835 7.62099 12.4835 9.33934C12.4835 11.0577 11.0899 12.4513 9.37156 12.4513Z" fill="white"/>
<path d="M15.4783 4.35238C15.4783 4.97086 14.9769 5.47234 14.3582 5.47234C13.7398 5.47234 13.2383 4.97086 13.2383 4.35238C13.2383 3.73376 13.7398 3.23242 14.3582 3.23242C14.9769 3.23242 15.4783 3.73376 15.4783 4.35238Z" fill="white"/>
</g>
<defs>
<clipPath id="clip0_68_816">
<rect width="18.675" height="18.675" fill="white"/>
</clipPath>
</defs>
</svg>
