<svg width="14" height="14" viewBox="0 0 14 14" fill="none" xmlns="http://www.w3.org/2000/svg">
<path d="M6.49113 11.2685C6.5478 11.349 6.62362 11.4148 6.71207 11.4602C6.80052 11.5057 6.89895 11.5294 6.99888 11.5294C7.0988 11.5294 7.19723 11.5057 7.28568 11.4602C7.37413 11.4148 7.44995 11.349 7.50662 11.2685L13.0659 3.41807C13.1302 3.32752 13.168 3.22146 13.175 3.11142C13.182 3.00138 13.158 2.89156 13.1057 2.79389C13.0534 2.69623 12.9747 2.61445 12.8781 2.55745C12.7816 2.50045 12.6709 2.47041 12.5581 2.47058H1.43962C1.3271 2.47104 1.21684 2.50147 1.12069 2.55861C1.02454 2.61574 0.946142 2.69742 0.893925 2.79486C0.841709 2.8923 0.81765 3.00181 0.824336 3.11162C0.831022 3.22143 0.8682 3.32737 0.931871 3.41807L6.49113 11.2685Z" fill="#878C92"/>
</svg>
