<svg width="13" height="13" viewBox="0 0 13 13" fill="none" xmlns="http://www.w3.org/2000/svg">
<path fill-rule="evenodd" clip-rule="evenodd" d="M12.682 11.1476L9.86017 8.32475C9.84501 8.30959 9.82769 8.29876 9.81145 8.28468C11.319 5.99391 10.8487 2.93393 8.72276 1.20164C6.59683 -0.530646 3.50491 -0.373328 1.56579 1.56579C-0.373328 3.50491 -0.530646 6.59683 1.20164 8.72276C2.93393 10.8487 5.99391 11.319 8.28468 9.81145C8.29876 9.82769 8.30959 9.84501 8.32366 9.86017L11.1466 12.6831C11.4208 12.9573 11.8206 13.0645 12.1953 12.9641C12.5699 12.8637 12.8626 12.571 12.963 12.1964C13.0634 11.8217 12.9563 11.4219 12.682 11.1476ZM5.34804 8.83908C3.93651 8.83908 2.66397 7.9888 2.1238 6.68471C1.58363 5.38062 1.88221 3.87956 2.88031 2.88145C3.87842 1.88335 5.37948 1.58477 6.68357 2.12494C7.98766 2.66511 8.83794 3.93765 8.83794 5.34918C8.83794 7.2766 7.27546 8.83908 5.34804 8.83908Z" fill="#626262"/>
</svg>
