<svg width="16" height="16" viewBox="0 0 16 16" fill="none" xmlns="http://www.w3.org/2000/svg">
<path d="M1.68744 0.87008L2.27629 0.28123C2.65126 -0.0937428 3.25921 -0.0937435 3.63418 0.281229L6.117 2.76404C6.49197 3.13902 6.49197 3.74697 6.11699 4.12194L4.39596 5.84297C4.10898 6.12995 4.03784 6.56837 4.21934 6.93138C5.26858 9.02986 6.97014 10.7314 9.06862 11.7807C9.43163 11.9622 9.87005 11.891 10.157 11.604L11.8781 9.883C12.253 9.50803 12.861 9.50803 13.236 9.883L15.7188 12.3658C16.0937 12.7408 16.0937 13.3487 15.7188 13.7237L15.1299 14.3126C13.1026 16.3398 9.89319 16.5679 7.59959 14.8477L6.43931 13.9775C4.76521 12.7219 3.27806 11.2348 2.02249 9.56069L1.15227 8.40041C-0.567923 6.10681 -0.339836 2.89735 1.68744 0.87008Z" fill="#FF4B21"/>
</svg>
